
<svg width="451.2" height="143.76858832485462" viewBox="0 0 169.4723463858887 54" class="css-1j8o68f"><defs id="SvgjsDefs1027"></defs><g id="SvgjsG1028" featurekey="symbolFeature-0" transform="matrix(0.6,0,0,0.6,10,-3)" fill="#111111"><path xmlns="http://www.w3.org/2000/svg" fill="#111111" d="M95,52c0-12.871-5.692-24.431-14.682-32.318C72.431,10.692,60.871,5,48,5C24.29,5,5,24.29,5,48  c0,12.868,5.69,24.426,14.677,32.313C27.564,89.306,39.126,95,52,95c0.084,0,0.166-0.006,0.25-0.006S52.416,95,52.5,95  C75.972,95,95,75.972,95,52.5c0-0.084-0.006-0.166-0.006-0.25S95,52.084,95,52z M21.828,73.371  c-4.245-5.978-6.77-13.259-6.822-21.121c0.135-20.511,16.732-37.109,37.244-37.244c7.862,0.052,15.144,2.577,21.121,6.822  C80.224,28.473,84.5,37.758,84.5,48c0,20.126-16.374,36.5-36.5,36.5C37.758,84.5,28.473,80.224,21.828,73.371z M6,48  C6,24.841,24.841,6,48,6c9.858,0,18.926,3.422,26.1,9.13C67.637,11.242,60.076,9,52,9C28.29,9,9,28.29,9,52  c0,8.074,2.241,15.633,6.127,22.095C9.421,66.923,6,57.856,6,48z M52,89c-10.08,0-19.227-4.055-25.905-10.615  C32.269,82.854,39.838,85.5,48,85.5c20.678,0,37.5-16.822,37.5-37.5c0-8.162-2.646-15.731-7.115-21.905  C84.945,32.773,89,41.92,89,52C89,72.402,72.402,89,52,89z"></path></g><g id="SvgjsG1029" featurekey="nameLeftFeature-0" transform="matrix(1.9007391227505699,0,0,1.9007391227505699,72.85955716078979,6.985219131088925)" fill="#111111"><path d="M2.5 8.22 q0.24 0.6 1.04 1.7 q0.8 1.12 1.16 1.74 t0.52 1.29 t0.16 1.71 l0 3.04 q0 2.3 -2.24 2.3 l-0.3 0 q-1.2 0 -1.72 -0.61 t-0.52 -1.69 l0 -4.66 l1.66 0 l0 4.44 q0 0.4 0.15 0.63 t0.57 0.23 t0.58 -0.23 t0.16 -0.63 l0 -3.06 q0 -0.92 -0.25 -1.5 t-1.05 -1.7 q-0.8 -1.1 -1.16 -1.74 t-0.51 -1.32 t-0.15 -1.72 l0 -3.08 q0 -1.1 0.52 -1.7 t1.72 -0.6 l0.3 0 q2.24 0 2.24 2.3 l0 4.7 l-1.66 0 l0 -4.48 q0 -0.4 -0.16 -0.63 t-0.58 -0.23 t-0.57 0.23 t-0.15 0.63 l0 3.08 q0 0.96 0.24 1.56 z M11.36 3.3599999999999994 l0 14.34 q0 2.3 -2.24 2.3 l0.88 0 l-1.18 0 q-1.2 0 -1.72 -0.61 t-0.52 -1.69 l0 -14.34 q0 -1.1 0.52 -1.7 t1.72 -0.6 l0.98 0 l-0.68 0 q2.24 0 2.24 2.3 z M9.700000000000001 3.5799999999999983 q0 -0.4 -0.16 -0.63 t-0.58 -0.23 t-0.57 0.23 t-0.15 0.63 l0 13.9 q0 0.4 0.15 0.63 t0.57 0.23 t0.58 -0.23 t0.16 -0.63 l0 -13.9 z M14.46 8.22 q0.24 0.6 1.04 1.7 q0.8 1.12 1.16 1.74 t0.52 1.29 t0.16 1.71 l0 3.04 q0 2.3 -2.24 2.3 l-0.3 0 q-1.2 0 -1.72 -0.61 t-0.52 -1.69 l0 -4.66 l1.66 0 l0 4.44 q0 0.4 0.15 0.63 t0.57 0.23 t0.58 -0.23 t0.16 -0.63 l0 -3.06 q0 -0.92 -0.25 -1.5 t-1.05 -1.7 q-0.8 -1.1 -1.16 -1.74 t-0.51 -1.32 t-0.15 -1.72 l0 -3.08 q0 -1.1 0.52 -1.7 t1.72 -0.6 l0.3 0 q2.24 0 2.24 2.3 l0 4.7 l-1.66 0 l0 -4.48 q0 -0.4 -0.16 -0.63 t-0.58 -0.23 t-0.57 0.23 t-0.15 0.63 l0 3.08 q0 0.96 0.24 1.56 z"></path></g><g id="SvgjsG1030" featurekey="nameRightFeature-0" transform="matrix(1.9148936947312738,0,0,1.9148936947312738,107.46808467897799,6.970215304160233)" fill="#111111"><path d="M6.02 4.18 c1.24 0 1.86 0.94 1.86 2.22 l0 13.6 l-0.76 0 l0 -13.04 c0 -1.38 -0.24 -2.02 -1.2 -2.02 s-1.2 0.62 -1.2 2.02 l0 13.04 l-0.76 0 l0 -13.04 c0 -1.38 -0.26 -2.02 -1.2 -2.02 c-0.96 0 -1.22 0.62 -1.22 2.02 l0 13.04 l-0.74 0 l0 -15.7 l0.74 0 l0 0.48 c0.18 -0.3 0.66 -0.56 1.1 -0.6 l0.22 0 c0.76 0 1.28 0.36 1.58 0.92 c0.06 -0.1 0.14 -0.22 0.22 -0.32 c0.26 -0.32 0.6 -0.54 1.16 -0.6 l0.2 0 z M13.559999999999999 20 l-0.74 0 s-0.12 -0.3 -0.12 -0.56 c-0.18 0.26 -0.68 0.56 -1.14 0.56 l-0.22 0 c-1.22 0 -1.86 -0.92 -1.86 -2.22 l0 -2.06 c0.02 -0.8 0.06 -1.42 0.28 -1.92 c0.18 -0.44 0.52 -0.92 1.44 -1.94 c1.1 -1.2 1.46 -1.66 1.46 -2.98 l0 -1.92 c0 -1.38 -0.26 -2.02 -1.22 -2.02 c-0.94 0 -1.2 0.62 -1.2 2.02 l0 2.92 l-0.76 0 l0 -3.48 c0 -1.28 0.64 -2.22 1.86 -2.22 l0.22 0 c1.22 0 1.84 0.94 1.84 2.22 l0 12.58 c0 0.52 0.12 0.86 0.16 1.02 z M11.44 19.24 c0.96 0 1.22 -0.62 1.22 -2.02 l0 -5.88 c-0.22 0.26 -0.52 0.62 -0.96 1.1 c-1.1 1.2 -1.46 1.68 -1.46 3 l0 1.78 c0 1.4 0.26 2.02 1.2 2.02 z M17.02 4.92 c-0.94 0 -1.2 0.64 -1.2 2.04 l0 1.92 c0 1.3 0.36 1.78 1.46 2.98 c0.92 1.02 1.26 1.48 1.44 1.94 c0.22 0.48 0.26 1.1 0.26 1.9 l0 2.2 c0 1.3 -0.62 2.22 -1.84 2.22 l-0.22 0 c-1.22 0 -1.86 -0.92 -1.86 -2.22 l0 -3.48 l0.76 0 l0 2.92 c0 1.4 0.26 2.02 1.2 2.02 c0.96 0 1.22 -0.62 1.22 -2.02 l0 -1.92 c0 -1.32 -0.36 -1.78 -1.46 -2.98 c-0.98 -1.1 -1.26 -1.46 -1.44 -1.94 c-0.2 -0.48 -0.26 -1.12 -0.28 -1.92 l0 -2.18 c0 -1.3 0.64 -2.22 1.86 -2.22 l0.22 0 c1.22 0 1.84 0.92 1.84 2.22 l0 3.48 l-0.74 0 l0 -2.92 c0 -1.4 -0.26 -2.04 -1.22 -2.04 z M23.18 4.300000000000001 l0 0.76 l-1.3 0 l0 12.16 c0 1.4 0.24 2.02 1.2 2.02 l0.1 0 l0 0.76 l-0.2 0 c-1.24 0 -1.86 -0.92 -1.86 -2.22 l0 -12.72 l-0.54 0 l0 -0.76 l0.54 0 l0 -2.98 l0.76 0 l0 2.98 l1.3 0 z M27.96 17.34 l0 -2.92 l0.74 0 l0 3.48 c0 1.3 -0.62 2.22 -1.84 2.22 l-0.22 0 c-1.24 0 -1.86 -0.92 -1.86 -2.22 l0 -11.5 c0 -1.3 0.62 -2.22 1.86 -2.22 l0.22 0 c1.22 0 1.84 0.92 1.84 2.22 l0 2.18 c0 0.8 -0.06 1.44 -0.26 1.92 c-0.18 0.48 -0.46 0.84 -1.46 1.94 c-1.08 1.2 -1.44 1.66 -1.44 2.98 l0 1.92 c0 1.4 0.24 2.02 1.2 2.02 s1.22 -0.62 1.22 -2.02 z M26.740000000000002 4.92 c-0.96 0 -1.2 0.64 -1.2 2.04 l0 6.02 c0.22 -0.28 0.52 -0.64 0.96 -1.12 c1.1 -1.2 1.44 -1.68 1.44 -2.98 c0.02 -0.3 0.02 -1.92 0.02 -1.92 c0 -1.4 -0.26 -2.04 -1.22 -2.04 z M31.06 6.9399999999999995 l0 13.06 l-0.76 0 l0 -15.7 l0.76 0 l0 0.42 c0.2 -0.32 0.6 -0.54 1.1 -0.56 l0.22 0 l0 0.74 l-0.12 0 c-0.94 0 -1.2 0.64 -1.2 2.04 z"></path></g></svg>